<svg fill="#f0e800" height="200px" width="200px" version="1.1" id="Layer_1" xmlns="http://www.w3.org/2000/svg" xmlns:xlink="http://www.w3.org/1999/xlink" viewBox="0 0 512 512" xml:space="preserve" stroke="#f0e800"><g id="SVGRepo_bgCarrier" stroke-width="0"></g><g id="SVGRepo_tracerCarrier" stroke-linecap="round" stroke-linejoin="round"></g><g id="SVGRepo_iconCarrier"> <g> <g> <path d="M403.031,97.6c-3.605-7.104-10.859-11.605-18.816-11.691l-21.12-0.192l38.101-51.733 c4.757-6.485,5.461-15.104,1.856-22.272C399.426,4.523,392.044,0,384.002,0H277.335c-6.891,0-13.355,3.328-17.344,8.939 L153.324,158.272c-4.651,6.507-5.291,15.061-1.643,22.165c3.669,7.104,10.987,11.563,18.987,11.563h24.149l-63.232,94.827 c-4.352,6.549-4.779,14.955-1.067,21.909c3.712,6.933,10.944,11.264,18.816,11.264h27.925l-68.907,162.325 c-4.053,9.579-0.619,20.693,8.149,26.304c3.541,2.261,7.509,3.371,11.499,3.371c5.824,0,11.627-2.389,15.787-6.976 l213.333-234.667c5.675-6.251,7.125-15.253,3.712-22.997c-3.413-7.723-11.051-12.693-19.499-12.693h-22.464l82.453-114.987 C405.975,113.216,406.636,104.704,403.031,97.6z"></path> </g> </g> </g></svg>